<svg width="19" height="12" viewBox="0 0 19 12" fill="none" xmlns="http://www.w3.org/2000/svg">
<path d="M11.2964 0.7889C10.3084 -0.199059 8.7066 -0.199059 7.71864 0.7889L1.63652 6.87102C0.648556 7.85898 0.648556 9.46078 1.63652 10.4487C2.62448 11.4367 4.22627 11.4367 5.21423 10.4487L11.2964 4.36662C12.2843 3.37866 12.2843 1.77686 11.2964 0.7889Z" fill="#041366"/>
<path d="M17.3785 10.4487C18.3664 9.46078 18.3664 7.85898 17.3785 6.87102L11.2964 0.7889C10.3084 -0.199059 8.7066 -0.199059 7.71864 0.7889C6.73068 1.77686 6.73068 3.37866 7.71864 4.36662L13.8008 10.4487C14.7887 11.4367 16.3905 11.4367 17.3785 10.4487Z" fill="#041366"/>
</svg>
