<svg width="19" height="18" viewBox="0 0 19 18" fill="none" xmlns="http://www.w3.org/2000/svg">
<path d="M16.9837 4.43223C17.1042 4.43137 17.1937 4.54333 17.1676 4.66096C17.0317 5.27296 16.9 5.86804 16.7666 6.46312C16.4788 7.74783 16.187 9.03155 15.9062 10.3177C15.8684 10.49 15.8068 10.5504 15.6159 10.5499C13.2534 10.5426 10.8909 10.5431 8.52842 10.5494C8.35119 10.5499 8.28303 10.4945 8.22244 10.3374C6.96671 7.09983 5.70443 3.86474 4.44315 0.629166C4.25482 0.145622 4.03871 0.000803958 3.50552 0.000803958C2.63 0.000313049 1.75398 -0.00115947 0.878453 0.00178598C0.45382 0.00325871 0.144811 0.20993 0.036254 0.555039C-0.120775 1.05331 0.250844 1.55846 0.793122 1.56533C1.49849 1.57367 2.20436 1.57318 2.90972 1.56386C3.06271 1.56189 3.12431 1.61049 3.17783 1.74647C4.44164 4.96143 5.71049 8.17492 6.97883 11.3879C7.15202 11.8273 7.41054 11.9996 7.89828 11.9996C10.7334 12.0001 13.568 12.0001 16.4031 11.9996C16.9004 11.9996 17.1721 11.7895 17.2801 11.3128C17.8451 8.8293 18.4096 6.3453 18.9706 3.86081C19.1054 3.26338 18.7686 2.86182 18.1369 2.86133C16.0138 2.85985 13.8906 2.86083 11.7679 2.86083C11.0873 2.86083 10.4072 2.85642 9.72658 2.86231C9.12977 2.86722 8.73796 3.36893 8.91367 3.89125C9.02424 4.22016 9.3277 4.43027 9.70739 4.43125C10.545 4.43371 11.3832 4.43223 12.2209 4.43223C13.8083 4.43223 15.3963 4.43223 16.9837 4.43223Z" fill="white"/>
<path d="M6.33333 15.4925C6.33133 16.8697 7.51719 17.9976 8.96796 18C10.4132 18.0019 11.6121 16.8669 11.6111 15.4959C11.6101 14.1091 10.4368 12.9995 8.97147 13C7.49966 13.001 6.33484 14.1009 6.33333 15.4925ZM8.97497 14.4639C9.55138 14.4658 10.0096 14.9053 10.0096 15.4564C10.0101 16.0004 9.52233 16.4639 8.95544 16.4591C8.38355 16.4543 7.92583 16.0057 7.93084 15.4555C7.93635 14.9135 8.41159 14.4624 8.97497 14.4639Z" fill="white"/>
<path d="M17.9444 15.5029C17.9469 14.1126 16.7825 13.0039 15.3158 13C13.8656 12.9962 12.6687 14.1232 12.6667 15.4937C12.6647 16.8797 13.8351 17.9947 15.2978 18C16.744 18.0053 17.9424 16.8744 17.9444 15.5029ZM16.3416 15.4981C16.3416 16.0565 15.8918 16.4941 15.3153 16.496C14.7453 16.4985 14.268 16.0368 14.271 15.487C14.274 14.9262 14.7383 14.4655 15.3033 14.463C15.8758 14.4611 16.3416 14.9252 16.3416 15.4981Z" fill="white"/>
</svg>
