<svg width="17" height="13" viewBox="0 0 17 13" fill="none" xmlns="http://www.w3.org/2000/svg">
<path d="M1.41975 5.12517C2.2037 4.34122 3.47474 4.34122 4.25869 5.12517L8.31432 9.18081C9.09828 9.96476 9.09828 11.2358 8.31432 12.0197C7.53037 12.8037 6.25933 12.8037 5.47538 12.0198L1.41975 7.96412C0.635795 7.18017 0.635795 5.90913 1.41975 5.12517Z" fill="#2044F7"/>
<path d="M16.02 1.4751C16.804 2.25906 16.804 3.53009 16.02 4.31405L8.31432 12.0197C7.53037 12.8037 6.25933 12.8037 5.47538 12.0198C4.69143 11.2358 4.69143 9.96476 5.47538 9.18081L13.1811 1.4751C13.965 0.691152 15.2361 0.691152 16.02 1.4751Z" fill="#2044F7"/>
</svg>
