<svg width="337" height="85" viewBox="0 0 337 85" fill="none" xmlns="http://www.w3.org/2000/svg">
<path d="M26.3453 71.4043C18.0606 71.4043 11.5985 69.0293 6.95913 64.2794C2.31971 59.5296 0 53.1227 0 45.059C0 37.9894 2.31971 32.1901 6.95913 27.6612C11.709 23.1322 17.7844 20.8677 25.1854 20.8677C32.3655 20.8677 38.1095 22.9665 42.4175 27.1641C46.7256 31.2512 48.8796 36.3325 48.8796 42.4079C48.8796 44.8381 48.2168 46.6607 46.8913 47.8758C45.6762 49.0909 44.0745 49.6984 42.0861 49.6984H13.2555C12.1509 49.6984 11.7642 50.3059 12.0956 51.521C12.9793 54.614 14.7467 57.0441 17.3978 58.8115C20.1594 60.4685 23.2523 61.2969 26.6767 61.2969C29.2173 61.2969 31.6475 60.9656 33.9672 60.3028C36.3973 59.64 38.4961 58.6459 40.2635 57.3203C40.8158 56.8785 41.5338 56.6575 42.4175 56.6575C43.6326 56.6575 44.7372 57.2098 45.7314 58.3145C46.7256 59.3086 47.2226 60.5237 47.2226 61.9597C47.2226 62.6225 47.1122 63.2853 46.8913 63.948C46.6703 64.6108 46.1733 65.2736 45.4 65.9364C42.528 68.0351 39.4351 69.4712 36.1212 70.2444C32.9178 71.0176 29.6591 71.4043 26.3453 71.4043ZM35.9555 41.0823C36.6183 41.0823 36.9497 40.751 36.9497 40.0882C36.9497 37.5475 35.7898 35.3383 33.4701 33.4604C31.2608 31.5826 28.4993 30.6436 25.1854 30.6436C22.3134 30.6436 19.5518 31.4169 16.9007 32.9634C14.3601 34.5098 12.8136 36.5534 12.2613 39.094C12.2613 39.094 12.2613 39.1492 12.2613 39.2597C12.1509 39.7016 12.0956 40.0882 12.0956 40.4196C12.2061 40.751 12.7032 40.9166 13.5869 40.9166L35.9555 41.0823Z" fill="white"/>
<path d="M78.3666 71.4043C76.7096 71.4043 75.1631 71.0176 73.7271 70.2444C72.2911 69.5816 71.2417 68.5322 70.5789 67.0962L54.1753 28.4896C53.9544 27.6059 53.8439 26.9432 53.8439 26.5013C53.8439 24.7339 54.4515 23.3531 55.6665 22.359C56.8816 21.3648 58.2072 20.8677 59.6432 20.8677C60.6373 20.8677 61.5763 21.1439 62.46 21.6962C63.4541 22.2485 64.1721 23.1322 64.614 24.3473L76.2125 54.3378C76.7648 55.4424 77.4829 55.9948 78.3666 55.9948C79.4712 55.9948 80.1892 55.4424 80.5206 54.3378L91.9534 24.3473C92.3953 23.1322 93.058 22.2485 93.9417 21.6962C94.9359 21.1439 95.9301 20.8677 96.9242 20.8677C98.4707 20.8677 99.7962 21.3648 100.901 22.359C102.116 23.3531 102.723 24.6787 102.723 26.3356C102.723 26.8879 102.613 27.6059 102.392 28.4896L86.1541 67.0962C85.4914 68.5322 84.442 69.5816 83.006 70.2444C81.57 71.0176 80.0235 71.4043 78.3666 71.4043Z" fill="white"/>
<path d="M132.493 71.4043C124.208 71.4043 117.746 69.0293 113.107 64.2794C108.467 59.5296 106.147 53.1227 106.147 45.059C106.147 37.9894 108.467 32.1901 113.107 27.6612C117.856 23.1322 123.932 20.8677 131.333 20.8677C138.513 20.8677 144.257 22.9665 148.565 27.1641C152.873 31.2512 155.027 36.3325 155.027 42.4079C155.027 44.8381 154.364 46.6607 153.039 47.8758C151.824 49.0909 150.222 49.6984 148.234 49.6984H119.403C118.298 49.6984 117.912 50.3059 118.243 51.521C119.127 54.614 120.894 57.0441 123.545 58.8115C126.307 60.4685 129.4 61.2969 132.824 61.2969C135.365 61.2969 137.795 60.9656 140.115 60.3028C142.545 59.64 144.644 58.6459 146.411 57.3203C146.963 56.8785 147.681 56.6575 148.565 56.6575C149.78 56.6575 150.885 57.2098 151.879 58.3145C152.873 59.3086 153.37 60.5237 153.37 61.9597C153.37 62.6225 153.26 63.2853 153.039 63.948C152.818 64.6108 152.321 65.2736 151.547 65.9364C148.675 68.0351 145.582 69.4712 142.269 70.2444C139.065 71.0176 135.807 71.4043 132.493 71.4043ZM142.103 41.0823C142.766 41.0823 143.097 40.751 143.097 40.0882C143.097 37.5475 141.937 35.3383 139.617 33.4604C137.408 31.5826 134.647 30.6436 131.333 30.6436C128.461 30.6436 125.699 31.4169 123.048 32.9634C120.507 34.5098 118.961 36.5534 118.409 39.094C118.409 39.094 118.409 39.1492 118.409 39.2597C118.298 39.7016 118.243 40.0882 118.243 40.4196C118.353 40.751 118.851 40.9166 119.734 40.9166L142.103 41.0823Z" fill="white"/>
<path d="M176.229 45.2247V66.2678C176.229 67.9247 175.622 69.195 174.407 70.0787C173.302 70.9624 172.032 71.4043 170.596 71.4043C169.16 71.4043 167.834 70.9624 166.619 70.0787C165.514 69.195 164.962 67.9247 164.962 66.2678V27.3298C164.962 25.4519 165.514 24.0711 166.619 23.1874C167.834 22.1933 169.16 21.6962 170.596 21.6962C172.032 21.6962 173.302 22.1933 174.407 23.1874C175.622 24.0711 176.229 25.4519 176.229 27.3298V27.9926C177.776 25.8938 179.764 24.1816 182.194 22.8561C184.735 21.5305 187.386 20.8677 190.148 20.8677C191.473 20.8677 192.799 21.0334 194.124 21.3648C195.45 21.6962 196.444 22.359 197.107 23.3531C197.769 24.3473 198.101 25.4519 198.101 26.667C198.101 28.103 197.604 29.4286 196.61 30.6436C195.726 31.7483 194.4 32.3006 192.633 32.3006C191.86 32.3006 191.031 32.1901 190.148 31.9692C189.374 31.7483 188.38 31.6378 187.165 31.6378C183.962 31.6378 181.311 32.8529 179.212 35.2831C177.223 37.7132 176.229 41.0271 176.229 45.2247Z" fill="white"/>
<path d="M330.442 71.4042C329.006 71.4042 327.681 70.9624 326.466 70.0787C325.361 69.195 324.809 67.9247 324.809 66.2677V45.3904C324.809 40.53 323.704 36.94 321.495 34.6203C319.396 32.3006 316.579 31.1407 313.045 31.1407C308.516 31.1407 305.202 32.632 303.103 35.6145C301.115 38.4865 300.12 41.6899 300.12 45.2247V66.2677C300.12 67.9247 299.513 69.195 298.298 70.0787C297.193 70.9624 295.923 71.4042 294.487 71.4042C293.051 71.4042 291.725 70.9624 290.51 70.0787C289.406 69.195 288.853 67.9247 288.853 66.2677V27.3298C288.853 25.4519 289.406 24.0711 290.51 23.1874C291.725 22.1933 293.051 21.6962 294.487 21.6962C295.923 21.6962 297.193 22.1933 298.298 23.1874C299.513 24.0711 300.12 25.4519 300.12 27.3298C301.998 25.4519 304.428 23.9054 307.411 22.6904C310.393 21.4753 313.21 20.8677 315.861 20.8677C322.047 20.8677 326.963 22.8561 330.608 26.8327C334.253 30.8093 336.076 36.6638 336.076 44.3962V66.2677C336.076 67.9247 335.468 69.195 334.253 70.0787C333.038 70.9624 331.768 71.4042 330.442 71.4042Z" fill="white"/>
<path fill-rule="evenodd" clip-rule="evenodd" d="M254.42 21.5186C254.42 16.2982 260.471 13.3198 264.562 16.5996L264.564 16.6006C273.189 23.5584 278.725 34.1972 278.726 46.126C278.726 67.9349 260.199 85.5161 238.044 83.9189C219.861 82.6398 205.016 68.2683 203.122 50.1787L203.08 49.75C201.843 36.4325 207.534 24.3669 216.967 16.7041C221.067 13.3713 227.231 16.2146 227.231 21.5186C227.231 23.4714 226.302 25.253 224.821 26.4502C218.466 31.6289 214.646 39.7919 215.577 48.8066C216.785 60.5435 226.195 70.0496 237.915 71.3555C253.219 73.0702 266.221 61.0837 266.221 46.126C266.221 38.1927 262.548 31.0903 256.814 26.4346C255.329 25.2348 254.42 23.451 254.42 21.5186ZM277.935 46.8467C277.936 46.7733 277.94 46.6995 277.941 46.626L277.944 46.127C277.944 46.3674 277.939 46.6073 277.935 46.8467Z" fill="#2044F7"/>
<path fill-rule="evenodd" clip-rule="evenodd" d="M240.809 0C244.272 7.64126e-05 247.062 2.80893 247.062 6.25195V31.4492C247.062 34.8938 244.253 37.7011 240.809 37.7012C237.365 37.7011 234.556 34.9122 234.556 31.4492V6.25195C234.556 2.80891 237.345 3.6213e-05 240.809 0ZM240.253 36.8916C240.345 36.9009 240.439 36.9084 240.532 36.9131L240.809 36.9199C240.621 36.9199 240.436 36.9101 240.253 36.8916ZM235.339 31.5908C235.34 31.6192 235.342 31.6475 235.343 31.6758C235.34 31.6006 235.338 31.5251 235.338 31.4492L235.339 31.5908ZM246.275 31.6465C246.275 31.6277 246.277 31.6087 246.277 31.5898L246.279 31.4492C246.279 31.5153 246.277 31.581 246.275 31.6465Z" fill="#2044F7"/>
</svg>
